<svg width="243" height="295" viewBox="0 0 243 295" fill="none" xmlns="http://www.w3.org/2000/svg">
<g filter="url(#filter0_d_23_39)">
<path d="M26.0675 210.786C38.5144 223.303 54.3727 231.827 71.637 235.28C88.9013 238.734 106.796 236.961 123.059 230.187C139.321 223.413 153.221 211.942 163.001 197.224C172.78 182.505 178 165.201 178 147.5C178 129.799 172.78 112.495 163.001 97.7765C153.221 83.0583 139.321 71.5868 123.059 64.8128C106.796 58.0387 88.9013 56.2663 71.637 59.7197C54.3727 63.1731 38.5144 71.6971 26.0675 84.2139L89 147.5L26.0675 210.786Z" fill="#DDA853"/>
<path d="M81.3741 39V9.90909H92.8514C95.0578 9.90909 96.9376 10.3305 98.4906 11.1733C100.044 12.0066 101.227 13.1667 102.042 14.6534C102.866 16.1307 103.278 17.8352 103.278 19.767C103.278 21.6989 102.861 23.4034 102.028 24.8807C101.194 26.358 99.9868 27.5085 98.4054 28.3324C96.8334 29.1562 94.93 29.5682 92.6951 29.5682H85.3798V24.6392H91.7008C92.8845 24.6392 93.8599 24.4356 94.627 24.0284C95.4035 23.6117 95.9811 23.0388 96.3599 22.3097C96.7482 21.571 96.9423 20.7235 96.9423 19.767C96.9423 18.8011 96.7482 17.9583 96.3599 17.2386C95.9811 16.5095 95.4035 15.946 94.627 15.5483C93.8504 15.1411 92.8656 14.9375 91.6724 14.9375H87.5247V39H81.3741Z" fill="#16404D"/>
<path d="M168.945 67.4159L184.373 51.9881L188.652 56.2669L173.224 71.6947L168.945 67.4159ZM188.511 52.1488C187.875 51.5127 187.54 50.756 187.507 49.8788C187.487 49.0017 187.775 48.2651 188.371 47.6691C188.96 47.0799 189.69 46.7986 190.56 46.8254C191.444 46.8522 192.204 47.1837 192.84 47.8198C193.476 48.4559 193.805 49.2126 193.825 50.0898C193.858 50.967 193.58 51.7002 192.991 52.2894C192.395 52.8854 191.655 53.17 190.771 53.1432C189.901 53.1164 189.147 52.7849 188.511 52.1488Z" fill="#16404D"/>
<path d="M225.818 139.958L218.19 143.964L225.818 148.069V154.276L214.909 147.955L204 154.447V148.268L211.543 143.964L204 139.731V133.481L214.909 139.958L225.818 133.708V139.958Z" fill="#16404D"/>
<path d="M174.193 221.436C175.78 219.849 177.467 218.805 179.255 218.302C181.043 217.814 182.837 217.854 184.639 218.423C186.447 218.999 188.164 220.1 189.791 221.727C191.378 223.314 192.463 225.015 193.046 226.83C193.628 228.645 193.695 230.446 193.246 232.234C192.791 234.028 191.807 235.682 190.293 237.195C189.276 238.213 188.164 238.997 186.959 239.546C185.753 240.108 184.498 240.393 183.192 240.4C181.88 240.413 180.547 240.112 179.195 239.496C177.849 238.886 176.52 237.925 175.207 236.613L174.032 235.438L187.059 222.41L189.711 225.062L180.711 234.062C181.327 234.678 182.007 235.09 182.75 235.297C183.494 235.505 184.237 235.505 184.98 235.297C185.723 235.103 186.406 234.694 187.029 234.072C187.679 233.422 188.104 232.696 188.305 231.892C188.506 231.102 188.496 230.315 188.275 229.532C188.06 228.755 187.652 228.059 187.049 227.443L184.528 224.922C183.765 224.158 182.965 223.639 182.128 223.365C181.284 223.097 180.45 223.073 179.627 223.294C178.803 223.515 178.033 223.984 177.316 224.701C176.841 225.176 176.473 225.678 176.212 226.207C175.95 226.736 175.813 227.275 175.8 227.824C175.786 228.373 175.9 228.916 176.141 229.451L171.923 233.148C171.173 231.996 170.754 230.754 170.667 229.421C170.58 228.102 170.828 226.756 171.41 225.384C171.993 224.024 172.92 222.708 174.193 221.436Z" fill="#16404D"/>
<path d="M104.221 255.702V277.52H98.3544V273.714H98.1271C97.7294 275.068 97.0618 276.09 96.1243 276.782C95.1868 277.482 94.1072 277.833 92.8856 277.833C92.5826 277.833 92.2559 277.814 91.9055 277.776C91.5551 277.738 91.2474 277.686 90.9822 277.62V272.25C91.2663 272.336 91.6593 272.411 92.1612 272.478C92.6631 272.544 93.1224 272.577 93.539 272.577C94.4292 272.577 95.2246 272.383 95.9254 271.995C96.6167 271.616 97.1659 271.086 97.5731 270.404C97.9708 269.722 98.1697 268.936 98.1697 268.046V255.702H104.221Z" fill="#16404D"/>
</g>
<defs>
<filter id="filter0_d_23_39" x="22.0675" y="9.90906" width="207.751" height="275.924" filterUnits="userSpaceOnUse" color-interpolation-filters="sRGB">
<feFlood flood-opacity="0" result="BackgroundImageFix"/>
<feColorMatrix in="SourceAlpha" type="matrix" values="0 0 0 0 0 0 0 0 0 0 0 0 0 0 0 0 0 0 127 0" result="hardAlpha"/>
<feOffset dy="4"/>
<feGaussianBlur stdDeviation="2"/>
<feComposite in2="hardAlpha" operator="out"/>
<feColorMatrix type="matrix" values="0 0 0 0 0 0 0 0 0 0 0 0 0 0 0 0 0 0 0.68 0"/>
<feBlend mode="normal" in2="BackgroundImageFix" result="effect1_dropShadow_23_39"/>
<feBlend mode="normal" in="SourceGraphic" in2="effect1_dropShadow_23_39" result="shape"/>
</filter>
</defs>
</svg>
